<svg width="447" height="443" viewBox="0 0 447 443" fill="none" xmlns="http://www.w3.org/2000/svg">
<path fill-rule="evenodd" clip-rule="evenodd" d="M346 173C346 206.523 336.465 237.819 319.96 264.324L446.841 388.504L394.212 442.278L267.298 318.065C240.173 335.733 207.785 346 173 346C77.4547 346 0 268.545 0 173C0 77.4547 77.4547 0 173 0C268.545 0 346 77.4547 346 173ZM173 271C227.124 271 271 227.124 271 173C271 118.876 227.124 75 173 75C118.876 75 75 118.876 75 173C75 227.124 118.876 271 173 271Z" fill="black"/>
</svg>
